<svg width="249" height="34" viewBox="0 0 249 34" fill="none" xmlns="http://www.w3.org/2000/svg">
<path d="M0.49 32.5H-0.26C-0.26 32.9142 0.0757866 33.25 0.49 33.25V32.5ZM0.49 1.15V0.399998C0.0757866 0.399998 -0.26 0.735785 -0.26 1.15H0.49ZM17.533 2.214L17.2304 2.90025L17.2324 2.90112L17.533 2.214ZM21.39 16.35L22.023 16.7523L22.0245 16.7499L21.39 16.35ZM17.533 19.77L17.8577 20.4461L17.8599 20.445L17.533 19.77ZM7.805 20.929V20.179C7.39079 20.179 7.055 20.5148 7.055 20.929H7.805ZM7.805 32.5V33.25C8.21921 33.25 8.555 32.9142 8.555 32.5H7.805ZM7.805 15.115H7.055C7.055 15.5292 7.39079 15.865 7.805 15.865V15.115ZM12.308 14.754L12.5184 15.4739L12.5184 15.4739L12.308 14.754ZM14.322 13.519L13.7621 13.02L14.322 13.519ZM14.322 8.598L13.7568 9.09105L13.7621 9.09703L14.322 8.598ZM12.308 7.344L12.5184 6.62412L12.5184 6.62412L12.308 7.344ZM7.805 6.983V6.233C7.39079 6.233 7.055 6.56879 7.055 6.983H7.805ZM1.24 32.5V1.15H-0.26V32.5H1.24ZM0.49 1.9H12.08V0.399998H0.49V1.9ZM12.08 1.9C14.0183 1.9 15.7306 2.2389 17.2304 2.90025L17.8356 1.52775C16.1181 0.770433 14.195 0.399998 12.08 0.399998V1.9ZM17.2324 2.90112C18.7259 3.55453 19.8973 4.53224 20.7651 5.83975L22.0149 5.01025C20.9827 3.45509 19.5828 2.29213 17.8336 1.52688L17.2324 2.90112ZM20.7651 5.83975C21.6141 7.11896 22.065 8.76944 22.065 10.84H23.565C23.565 8.55322 23.0659 6.59371 22.0149 5.01025L20.7651 5.83975ZM22.065 10.84C22.065 12.8951 21.6152 14.586 20.7555 15.9501L22.0245 16.7499C23.0648 15.0993 23.565 13.1168 23.565 10.84H22.065ZM20.757 15.9477C19.8831 17.3227 18.7043 18.3693 17.2061 19.095L17.8599 20.445C19.6043 19.6 20.9969 18.3666 22.023 16.7523L20.757 15.9477ZM17.2083 19.0939C15.7139 19.8117 14.0096 20.179 12.08 20.179V21.679C14.2038 21.679 16.1348 21.2736 17.8577 20.4461L17.2083 19.0939ZM12.08 20.179H7.805V21.679H12.08V20.179ZM7.055 20.929V32.5H8.555V20.929H7.055ZM7.805 31.75H0.49V33.25H7.805V31.75ZM7.805 15.865H9.724V14.365H7.805V15.865ZM9.724 15.865C10.6911 15.865 11.6235 15.7355 12.5184 15.4739L12.0976 14.0341C11.3458 14.2539 10.5556 14.365 9.724 14.365V15.865ZM12.5184 15.4739C13.4628 15.1978 14.2599 14.7158 14.8819 14.018L13.7621 13.02C13.3454 13.4875 12.7999 13.8288 12.0976 14.0341L12.5184 15.4739ZM14.8819 14.018C15.5608 13.2564 15.851 12.2387 15.851 11.068H14.351C14.351 11.9999 14.1219 12.6163 13.7621 13.02L14.8819 14.018ZM15.851 11.068C15.851 9.88732 15.5621 8.86213 14.8819 8.09897L13.7621 9.09703C14.1206 9.4992 14.351 10.1207 14.351 11.068H15.851ZM14.8872 8.10497C14.2656 7.39245 13.467 6.90139 12.5184 6.62412L12.0976 8.06387C12.7957 8.26794 13.3397 8.61288 13.7568 9.09103L14.8872 8.10497ZM12.5184 6.62412C11.6235 6.36253 10.6911 6.233 9.724 6.233V7.733C10.5556 7.733 11.3458 7.84414 12.0976 8.06387L12.5184 6.62412ZM9.724 6.233H7.805V7.733H9.724V6.233ZM7.055 6.983V15.115H8.555V6.983H7.055ZM24.0821 32.5L23.3869 32.2186C23.2933 32.4497 23.3207 32.7123 23.4601 32.9192C23.5995 33.126 23.8326 33.25 24.0821 33.25V32.5ZM36.7741 1.15V0.399998C36.4685 0.399998 36.1935 0.585343 36.0789 0.868552L36.7741 1.15ZM43.5761 1.15L44.2714 0.868914C44.1568 0.585514 43.8817 0.399998 43.5761 0.399998V1.15ZM56.2491 32.5V33.25C56.4984 33.25 56.7315 33.1261 56.8709 32.9193C57.0103 32.7126 57.0379 32.4501 56.9444 32.2189L56.2491 32.5ZM48.3641 32.5L47.6599 32.7581C47.7681 33.0535 48.0494 33.25 48.3641 33.25V32.5ZM46.1221 26.382L46.8263 26.1239C46.718 25.8285 46.4368 25.632 46.1221 25.632V26.382ZM34.2281 26.382V25.632C33.9141 25.632 33.6334 25.8275 33.5246 26.122L34.2281 26.382ZM31.9671 32.5V33.25C32.281 33.25 32.5617 33.0545 32.6706 32.76L31.9671 32.5ZM36.7171 19.96L36.0183 19.6877C35.9283 19.9184 35.9581 20.1787 36.0979 20.3832C36.2377 20.5877 36.4694 20.71 36.7171 20.71V19.96ZM43.6141 19.96V20.71C43.8615 20.71 44.093 20.588 44.2328 20.3838C44.3727 20.1797 44.4028 19.9197 44.3134 19.689L43.6141 19.96ZM40.1751 11.087L40.8744 10.816C40.7626 10.5275 40.4851 10.3373 40.1758 10.337C39.8664 10.3367 39.5886 10.5264 39.4763 10.8147L40.1751 11.087ZM24.7773 32.7814L37.4693 1.43144L36.0789 0.868552L23.3869 32.2186L24.7773 32.7814ZM36.7741 1.9H43.5761V0.399998H36.7741V1.9ZM42.8807 1.43108L55.5537 32.7811L56.9444 32.2189L44.2714 0.868914L42.8807 1.43108ZM56.2491 31.75H48.3641V33.25H56.2491V31.75ZM49.0683 32.2419L46.8263 26.1239L45.4179 26.6401L47.6599 32.7581L49.0683 32.2419ZM46.1221 25.632H34.2281V27.132H46.1221V25.632ZM33.5246 26.122L31.2636 32.24L32.6706 32.76L34.9316 26.642L33.5246 26.122ZM31.9671 31.75H24.0821V33.25H31.9671V31.75ZM36.7171 20.71H43.6141V19.21H36.7171V20.71ZM44.3134 19.689L40.8744 10.816L39.4758 11.358L42.9148 20.231L44.3134 19.689ZM39.4763 10.8147L36.0183 19.6877L37.4159 20.2323L40.8739 11.3593L39.4763 10.8147ZM66.6032 32.709L66.7619 31.9759L66.7546 31.9745L66.6032 32.709ZM63.2402 31.702L62.9511 32.3941L62.9542 32.3953L63.2402 31.702ZM60.5802 30.372L60.1865 31.0104L60.1912 31.0133L60.5802 30.372ZM58.7372 29.042L58.0928 28.6582C57.909 28.9669 57.9698 29.3626 58.238 29.6017L58.7372 29.042ZM62.4042 22.886L62.8517 22.2842C62.6814 22.1575 62.4654 22.109 62.2573 22.1505C62.0492 22.1921 61.8684 22.3199 61.7598 22.5022L62.4042 22.886ZM64.0762 24.045L63.6661 24.673L63.6719 24.6767L64.0762 24.045ZM66.1092 25.166L65.7881 25.8438L65.7881 25.8438L66.1092 25.166ZM68.3702 26.002L68.1718 26.7253L68.1718 26.7253L68.3702 26.002ZM72.7022 26.002L72.9779 26.6995L72.9779 26.6995L72.7022 26.002ZM73.9752 25.033L74.5879 25.4655L74.5879 25.4655L73.9752 25.033ZM74.0132 21.879L73.3701 22.2649C73.3744 22.2721 73.3789 22.2793 73.3835 22.2864L74.0132 21.879ZM72.7782 20.644L72.3557 21.2637L72.3557 21.2637L72.7782 20.644ZM70.6502 19.466L70.3187 20.1389L70.3308 20.1446L70.6502 19.466ZM67.6292 18.041L67.3098 18.7197L67.3177 18.7233L67.6292 18.041ZM65.2162 16.654L64.7882 17.2699L64.7882 17.2699L65.2162 16.654ZM63.2592 14.887L63.8317 14.4025L63.8317 14.4025L63.2592 14.887ZM61.9672 12.702L62.668 12.435L62.668 12.435L61.9672 12.702ZM62.2522 6.546L61.5681 6.23853L61.5652 6.24498L62.2522 6.546ZM64.3992 3.506L63.8799 2.9648L63.8763 2.96836L64.3992 3.506ZM67.7432 1.378L68.0229 2.07389L68.0264 2.07248L67.7432 1.378ZM75.4762 0.978999L75.3093 1.71019L75.311 1.71058L75.4762 0.978999ZM78.8392 2.043L78.5507 2.73531L78.5507 2.73531L78.8392 2.043ZM81.5942 3.544L82.2628 3.88376C82.4302 3.55427 82.3327 3.15193 82.0329 2.93573L81.5942 3.544ZM78.6302 9.377L78.2053 9.99503C78.3834 10.1175 78.6057 10.1571 78.8151 10.1038C79.0246 10.0505 79.2009 9.90945 79.2988 9.71676L78.6302 9.377ZM76.6352 8.275L76.3193 8.95525C76.3242 8.9575 76.329 8.9597 76.3339 8.96184L76.6352 8.275ZM74.4502 7.515L74.277 8.24474L74.277 8.24474L74.4502 7.515ZM70.3272 7.591L70.6145 8.28385L70.6226 8.28036L70.3272 7.591ZM69.1112 8.522L68.5022 8.08426L68.4995 8.08794L69.1112 8.522ZM68.9402 10.935L68.2873 11.304C68.2896 11.3082 68.292 11.3124 68.2945 11.3165L68.9402 10.935ZM69.6812 11.695L69.2543 12.3116C69.2632 12.3179 69.2723 12.3239 69.2816 12.3297L69.6812 11.695ZM70.9542 12.36L71.2619 11.6761L71.2619 11.6761L70.9542 12.36ZM72.7402 13.12L73.039 12.4321C73.0337 12.4298 73.0285 12.4276 73.0231 12.4254L72.7402 13.12ZM76.8822 15.096L76.5303 15.7584L76.5357 15.7612L76.8822 15.096ZM79.9412 17.186L79.4325 17.7371L79.4367 17.741L79.9412 17.186ZM81.8222 19.808L81.1314 20.1003L81.1361 20.1109L81.8222 19.808ZM80.9862 28.567L80.3638 28.1485L80.3613 28.1522L80.9862 28.567ZM76.8442 31.949L77.142 32.6374L77.1461 32.6356L76.8442 31.949ZM70.5362 32.358C69.1905 32.358 67.9331 32.2296 66.7619 31.976L66.4445 33.442C67.7306 33.7204 69.0952 33.858 70.5362 33.858V32.358ZM66.7546 31.9745C65.5655 31.7293 64.4904 31.4064 63.5262 31.0087L62.9542 32.3953C64.0167 32.8336 65.1835 33.1821 66.4517 33.4435L66.7546 31.9745ZM63.5293 31.01C62.5565 30.6036 61.7042 30.1766 60.9691 29.7307L60.1912 31.0133C61.0014 31.5047 61.9225 31.9644 62.9511 32.394L63.5293 31.01ZM60.9738 29.7336C60.237 29.2792 59.6618 28.8617 59.2364 28.4823L58.238 29.6017C58.7499 30.0583 59.4033 30.5274 60.1865 31.0104L60.9738 29.7336ZM59.3815 29.4258L63.0485 23.2698L61.7598 22.5022L58.0928 28.6582L59.3815 29.4258ZM61.9566 23.4878C62.465 23.8659 63.0351 24.2609 63.6661 24.673L64.4863 23.417C63.8759 23.0184 63.3313 22.6408 62.8517 22.2842L61.9566 23.4878ZM63.6719 24.6767C64.3336 25.1002 65.0392 25.4891 65.7881 25.8438L66.4302 24.4882C65.7352 24.1589 65.0855 23.8005 64.4805 23.4133L63.6719 24.6767ZM65.7881 25.8438C66.5504 26.2049 67.3452 26.4986 68.1718 26.7253L68.5685 25.2787C67.8245 25.0747 67.112 24.8111 66.4302 24.4882L65.7881 25.8438ZM68.1718 26.7253C69.0205 26.958 69.8788 27.075 70.7452 27.075V25.575C70.0155 25.575 69.2905 25.4767 68.5685 25.2787L68.1718 26.7253ZM70.7452 27.075C71.5728 27.075 72.3236 26.9581 72.9779 26.6995L72.4264 25.3045C71.9914 25.4765 71.4375 25.575 70.7452 25.575V27.075ZM72.9779 26.6995C73.6427 26.4367 74.1906 26.0284 74.5879 25.4655L73.3624 24.6005C73.1518 24.8989 72.851 25.1367 72.4264 25.3045L72.9779 26.6995ZM74.5879 25.4655C74.9997 24.8822 75.1812 24.1835 75.1812 23.418H73.6812C73.6812 23.9445 73.5587 24.3225 73.3624 24.6005L74.5879 25.4655ZM75.1812 23.418C75.1812 22.7018 75.012 22.0421 74.6429 21.4716L73.3835 22.2864C73.5717 22.5772 73.6812 22.9435 73.6812 23.418H75.1812ZM74.6563 21.4931C74.3203 20.9331 73.8214 20.4476 73.2007 20.0243L72.3557 21.2637C72.8496 21.6004 73.1741 21.9383 73.3701 22.2649L74.6563 21.4931ZM73.2007 20.0243C72.6003 19.615 71.8534 19.2033 70.9695 18.7874L70.3308 20.1446C71.1696 20.5393 71.8414 20.913 72.3557 21.2637L73.2007 20.0243ZM70.9816 18.7932C70.1245 18.371 69.1105 17.8928 67.9406 17.3587L67.3177 18.7233C68.4785 19.2532 69.4785 19.725 70.3188 20.1388L70.9816 18.7932ZM67.9485 17.3624C67.1234 16.9741 66.3556 16.5325 65.6442 16.0381L64.7882 17.2699C65.5715 17.8142 66.4123 18.2973 67.3098 18.7196L67.9485 17.3624ZM65.6442 16.0381C64.9476 15.5541 64.3446 15.0086 63.8317 14.4025L62.6866 15.3715C63.2885 16.0827 63.9901 16.7153 64.7882 17.2699L65.6442 16.0381ZM63.8317 14.4025C63.3286 13.8079 62.9415 13.1529 62.668 12.435L61.2663 12.969C61.6008 13.847 62.0751 14.6488 62.6866 15.3715L63.8317 14.4025ZM62.668 12.435C62.4 11.7313 62.2612 10.949 62.2612 10.08H60.7612C60.7612 11.111 60.9264 12.0767 61.2663 12.969L62.668 12.435ZM62.2612 10.08C62.2612 8.95514 62.4866 7.87962 62.9391 6.84702L61.5652 6.24498C61.0297 7.46705 60.7612 8.74753 60.7612 10.08H62.2612ZM62.9363 6.85345C63.4025 5.81606 64.0622 4.88001 64.9221 4.04364L63.8763 2.96836C62.8869 3.93066 62.1152 5.02127 61.5681 6.23854L62.9363 6.85345ZM64.9184 4.04719C65.7817 3.21892 66.8134 2.56004 68.0229 2.07388L67.4635 0.682112C66.0889 1.23462 64.8913 1.99441 63.8799 2.96481L64.9184 4.04719ZM68.0264 2.07248C69.2307 1.58141 70.577 1.33 72.0752 1.33V-0.170001C70.4067 -0.170001 68.865 0.110586 67.46 0.683515L68.0264 2.07248ZM72.0752 1.33C73.1165 1.33 74.1941 1.45564 75.3093 1.71019L75.6431 0.247806C74.4276 -0.0296469 73.2378 -0.170001 72.0752 -0.170001V1.33ZM75.311 1.71058C76.4488 1.96751 77.5284 2.30936 78.5507 2.73531L79.1276 1.35069C78.0219 0.889971 76.8595 0.522482 75.6414 0.247418L75.311 1.71058ZM78.5507 2.73531C79.5722 3.16094 80.438 3.63478 81.1554 4.15227L82.0329 2.93573C81.205 2.33855 80.2341 1.81172 79.1276 1.35069L78.5507 2.73531ZM80.9255 3.20424L77.9615 9.03724L79.2988 9.71676L82.2628 3.88376L80.9255 3.20424ZM79.0551 8.75897C78.4056 8.31243 77.6988 7.92253 76.9364 7.58816L76.3339 8.96184C77.0156 9.26081 77.6388 9.60557 78.2053 9.99503L79.0551 8.75897ZM76.951 7.59474C76.1967 7.24454 75.4207 6.97446 74.6233 6.78526L74.277 8.24474C74.9744 8.41021 75.6549 8.64679 76.3193 8.95525L76.951 7.59474ZM74.6233 6.78526C73.8229 6.59532 73.0301 6.499 72.2462 6.499V7.999C72.9063 7.999 73.5828 8.08001 74.277 8.24474L74.6233 6.78526ZM72.2462 6.499C71.4256 6.499 70.68 6.62381 70.0317 6.90164L70.6226 8.28036C71.0383 8.10219 71.5721 7.999 72.2462 7.999V6.499ZM70.0399 6.89819C69.4084 7.16004 68.8849 7.55179 68.5022 8.08427L69.7202 8.95973C69.9201 8.68154 70.2073 8.45263 70.6144 8.2838L70.0399 6.89819ZM68.4995 8.08794C68.1215 8.6207 67.9432 9.23855 67.9432 9.909H69.4432C69.4432 9.51545 69.5436 9.20863 69.7228 8.95606L68.4995 8.08794ZM67.9432 9.909C67.9432 10.4084 68.0487 10.882 68.2873 11.304L69.5931 10.566C69.5023 10.4053 69.4432 10.1949 69.4432 9.909H67.9432ZM68.2945 11.3165C68.5257 11.7079 68.8565 12.0363 69.2543 12.3116L70.1081 11.0784C69.8472 10.8977 69.684 10.7195 69.5859 10.5535L68.2945 11.3165ZM69.2816 12.3297C69.6616 12.5689 70.1189 12.8065 70.6464 13.0439L71.2619 11.6761C70.7762 11.4575 70.3848 11.2517 70.0808 11.0603L69.2816 12.3297ZM70.6464 13.0439C71.1634 13.2766 71.7674 13.5335 72.4572 13.8146L73.0231 12.4254C72.345 12.1491 71.7583 11.8994 71.2619 11.6761L70.6464 13.0439ZM72.4413 13.8079C73.9725 14.4731 75.335 15.1233 76.5303 15.7583L77.234 14.4337C75.9974 13.7767 74.5985 13.1096 73.039 12.4321L72.4413 13.8079ZM76.5357 15.7612C77.7054 16.3704 78.6674 17.0309 79.4325 17.7371L80.4499 16.6349C79.5683 15.8211 78.4909 15.0883 77.2286 14.4308L76.5357 15.7612ZM79.4367 17.741C80.1967 18.4319 80.758 19.2176 81.1314 20.1002L82.5129 19.5158C82.0503 18.4224 81.3577 17.4601 80.4457 16.631L79.4367 17.741ZM81.1361 20.1109C81.5155 20.9703 81.7182 22.0153 81.7182 23.266H83.2182C83.2182 21.8567 82.9901 20.5963 82.5083 19.5051L81.1361 20.1109ZM81.7182 23.266C81.7182 25.207 81.2555 26.8224 80.3638 28.1485L81.6086 28.9855C82.6929 27.3729 83.2182 25.4544 83.2182 23.266H81.7182ZM80.3613 28.1522C79.4737 29.4894 78.2113 30.5285 76.5423 31.2624L77.1461 32.6356C79.049 31.7988 80.548 30.5833 81.611 28.9818L80.3613 28.1522ZM76.5464 31.2607C74.8743 31.984 72.8772 32.358 70.5362 32.358V33.858C73.0338 33.858 75.2421 33.4593 77.142 32.6373L76.5464 31.2607ZM91.1764 32.5H90.4264C90.4264 32.9142 90.7622 33.25 91.1764 33.25V32.5ZM91.1764 1.15V0.399998C90.7622 0.399998 90.4264 0.735785 90.4264 1.15H91.1764ZM98.4914 1.15H99.2414C99.2414 0.735785 98.9056 0.399998 98.4914 0.399998V1.15ZM98.4914 13.576H97.7414C97.7414 13.9902 98.0772 14.326 98.4914 14.326V13.576ZM108.257 13.576V14.326C108.672 14.326 109.007 13.9902 109.007 13.576H108.257ZM108.257 1.15V0.399998C107.843 0.399998 107.507 0.735785 107.507 1.15H108.257ZM115.591 1.15H116.341C116.341 0.735785 116.006 0.399998 115.591 0.399998V1.15ZM115.591 32.5V33.25C116.006 33.25 116.341 32.9142 116.341 32.5H115.591ZM108.257 32.5H107.507C107.507 32.9142 107.843 33.25 108.257 33.25V32.5ZM108.257 19.998H109.007C109.007 19.5838 108.672 19.248 108.257 19.248V19.998ZM98.4914 19.998V19.248C98.0772 19.248 97.7414 19.5838 97.7414 19.998H98.4914ZM98.4914 32.5V33.25C98.9056 33.25 99.2414 32.9142 99.2414 32.5H98.4914ZM91.9264 32.5V1.15H90.4264V32.5H91.9264ZM91.1764 1.9H98.4914V0.399998H91.1764V1.9ZM97.7414 1.15V13.576H99.2414V1.15H97.7414ZM98.4914 14.326H108.257V12.826H98.4914V14.326ZM109.007 13.576V1.15H107.507V13.576H109.007ZM108.257 1.9H115.591V0.399998H108.257V1.9ZM114.841 1.15V32.5H116.341V1.15H114.841ZM115.591 31.75H108.257V33.25H115.591V31.75ZM109.007 32.5V19.998H107.507V32.5H109.007ZM108.257 19.248H98.4914V20.748H108.257V19.248ZM97.7414 19.998V32.5H99.2414V19.998H97.7414ZM98.4914 31.75H91.1764V33.25H98.4914V31.75ZM122.376 32.5L121.681 32.2186C121.587 32.4497 121.615 32.7123 121.754 32.9192C121.893 33.126 122.126 33.25 122.376 33.25V32.5ZM135.068 1.15V0.399998C134.762 0.399998 134.487 0.585343 134.373 0.868552L135.068 1.15ZM141.87 1.15L142.565 0.868914C142.451 0.585514 142.176 0.399998 141.87 0.399998V1.15ZM154.543 32.5V33.25C154.792 33.25 155.025 33.1261 155.165 32.9193C155.304 32.7126 155.332 32.4501 155.238 32.2189L154.543 32.5ZM146.658 32.5L145.954 32.7581C146.062 33.0535 146.343 33.25 146.658 33.25V32.5ZM144.416 26.382L145.12 26.1239C145.012 25.8285 144.731 25.632 144.416 25.632V26.382ZM132.522 26.382V25.632C132.208 25.632 131.927 25.8275 131.818 26.122L132.522 26.382ZM130.261 32.5V33.25C130.575 33.25 130.856 33.0545 130.964 32.76L130.261 32.5ZM135.011 19.96L134.312 19.6877C134.222 19.9184 134.252 20.1787 134.392 20.3832C134.531 20.5877 134.763 20.71 135.011 20.71V19.96ZM141.908 19.96V20.71C142.155 20.71 142.387 20.588 142.527 20.3838C142.666 20.1797 142.697 19.9197 142.607 19.689L141.908 19.96ZM138.469 11.087L139.168 10.816C139.056 10.5275 138.779 10.3373 138.47 10.337C138.16 10.3367 137.882 10.5264 137.77 10.8147L138.469 11.087ZM123.071 32.7814L135.763 1.43144L134.373 0.868552L121.681 32.2186L123.071 32.7814ZM135.068 1.9H141.87V0.399998H135.068V1.9ZM141.175 1.43108L153.848 32.7811L155.238 32.2189L142.565 0.868914L141.175 1.43108ZM154.543 31.75H146.658V33.25H154.543V31.75ZM147.362 32.2419L145.12 26.1239L143.712 26.6401L145.954 32.7581L147.362 32.2419ZM144.416 25.632H132.522V27.132H144.416V25.632ZM131.818 26.122L129.557 32.24L130.964 32.76L133.225 26.642L131.818 26.122ZM130.261 31.75H122.376V33.25H130.261V31.75ZM135.011 20.71H141.908V19.21H135.011V20.71ZM142.607 19.689L139.168 10.816L137.77 11.358L141.209 20.231L142.607 19.689ZM137.77 10.8147L134.312 19.6877L135.71 20.2323L139.168 11.3593L137.77 10.8147ZM164.771 32.5H164.021C164.021 32.9142 164.357 33.25 164.771 33.25V32.5ZM164.771 18.402H165.521C165.521 18.2528 165.477 18.107 165.393 17.9833L164.771 18.402ZM153.162 1.15V0.399998C152.885 0.399998 152.63 0.552869 152.5 0.79753C152.37 1.04219 152.385 1.33875 152.54 1.56871L153.162 1.15ZM161.997 1.15L162.625 0.740149C162.487 0.527942 162.251 0.399998 161.997 0.399998V1.15ZM168.419 10.992L167.791 11.4018C167.929 11.6139 168.165 11.7418 168.419 11.742C168.672 11.7422 168.908 11.6146 169.047 11.4027L168.419 10.992ZM174.86 1.15V0.399998C174.607 0.399998 174.371 0.527581 174.233 0.7393L174.86 1.15ZM183.676 1.15L184.299 1.56824C184.453 1.33824 184.468 1.0418 184.338 0.797279C184.208 0.552758 183.953 0.399998 183.676 0.399998V1.15ZM172.086 18.402L171.464 17.9838C171.38 18.1074 171.336 18.253 171.336 18.402H172.086ZM172.086 32.5V33.25C172.5 33.25 172.836 32.9142 172.836 32.5H172.086ZM165.521 32.5V18.402H164.021V32.5H165.521ZM165.393 17.9833L153.784 0.731288L152.54 1.56871L164.149 18.8207L165.393 17.9833ZM153.162 1.9H161.997V0.399998H153.162V1.9ZM161.369 1.55985L167.791 11.4018L169.047 10.5821L162.625 0.740149L161.369 1.55985ZM169.047 11.4027L175.488 1.5607L174.233 0.7393L167.792 10.5813L169.047 11.4027ZM174.86 1.9H183.676V0.399998H174.86V1.9ZM183.054 0.731761L171.464 17.9838L172.709 18.8202L184.299 1.56824L183.054 0.731761ZM171.336 18.402V32.5H172.836V18.402H171.336ZM172.086 31.75H164.771V33.25H172.086V31.75ZM182.339 32.5L181.644 32.2186C181.55 32.4497 181.577 32.7123 181.717 32.9192C181.856 33.126 182.089 33.25 182.339 33.25V32.5ZM195.031 1.15V0.399998C194.725 0.399998 194.45 0.585343 194.336 0.868552L195.031 1.15ZM201.833 1.15L202.528 0.868914C202.413 0.585514 202.138 0.399998 201.833 0.399998V1.15ZM214.506 32.5V33.25C214.755 33.25 214.988 33.1261 215.128 32.9193C215.267 32.7126 215.294 32.4501 215.201 32.2189L214.506 32.5ZM206.621 32.5L205.917 32.7581C206.025 33.0535 206.306 33.25 206.621 33.25V32.5ZM204.379 26.382L205.083 26.1239C204.975 25.8285 204.693 25.632 204.379 25.632V26.382ZM192.485 26.382V25.632C192.171 25.632 191.89 25.8275 191.781 26.122L192.485 26.382ZM190.224 32.5V33.25C190.538 33.25 190.818 33.0545 190.927 32.76L190.224 32.5ZM194.974 19.96L194.275 19.6877C194.185 19.9184 194.215 20.1787 194.355 20.3832C194.494 20.5877 194.726 20.71 194.974 20.71V19.96ZM201.871 19.96V20.71C202.118 20.71 202.35 20.588 202.489 20.3838C202.629 20.1797 202.659 19.9197 202.57 19.689L201.871 19.96ZM198.432 11.087L199.131 10.816C199.019 10.5275 198.742 10.3373 198.432 10.337C198.123 10.3367 197.845 10.5264 197.733 10.8147L198.432 11.087ZM183.034 32.7814L195.726 1.43144L194.336 0.868552L181.644 32.2186L183.034 32.7814ZM195.031 1.9H201.833V0.399998H195.031V1.9ZM201.137 1.43108L213.81 32.7811L215.201 32.2189L202.528 0.868914L201.137 1.43108ZM214.506 31.75H206.621V33.25H214.506V31.75ZM207.325 32.2419L205.083 26.1239L203.675 26.6401L205.917 32.7581L207.325 32.2419ZM204.379 25.632H192.485V27.132H204.379V25.632ZM191.781 26.122L189.52 32.24L190.927 32.76L193.188 26.642L191.781 26.122ZM190.224 31.75H182.339V33.25H190.224V31.75ZM194.974 20.71H201.871V19.21H194.974V20.71ZM202.57 19.689L199.131 10.816L197.732 11.358L201.171 20.231L202.57 19.689ZM197.733 10.8147L194.275 19.6877L195.673 20.2323L199.131 11.3593L197.733 10.8147ZM221.27 32.5H220.52C220.52 32.9142 220.856 33.25 221.27 33.25V32.5ZM221.27 1.15V0.399998C220.856 0.399998 220.52 0.735785 220.52 1.15H221.27ZM228.585 1.15L229.216 0.744715C229.078 0.529884 228.84 0.399998 228.585 0.399998V1.15ZM240.897 20.321L240.266 20.7263C240.446 21.0064 240.789 21.1344 241.108 21.0407C241.428 20.9469 241.647 20.6539 241.647 20.321H240.897ZM240.897 1.15V0.399998C240.483 0.399998 240.147 0.735785 240.147 1.15H240.897ZM248.212 1.15H248.962C248.962 0.735785 248.626 0.399998 248.212 0.399998V1.15ZM248.212 32.5V33.25C248.626 33.25 248.962 32.9142 248.962 32.5H248.212ZM240.897 32.5L240.266 32.9053C240.404 33.1201 240.642 33.25 240.897 33.25V32.5ZM228.585 13.329L229.216 12.9237C229.036 12.6436 228.693 12.5156 228.374 12.6093C228.054 12.7031 227.835 12.9961 227.835 13.329H228.585ZM228.585 32.5V33.25C228.999 33.25 229.335 32.9142 229.335 32.5H228.585ZM222.02 32.5V1.15H220.52V32.5H222.02ZM221.27 1.9H228.585V0.399998H221.27V1.9ZM227.954 1.55528L240.266 20.7263L241.528 19.9157L229.216 0.744715L227.954 1.55528ZM241.647 20.321V1.15H240.147V20.321H241.647ZM240.897 1.9H248.212V0.399998H240.897V1.9ZM247.462 1.15V32.5H248.962V1.15H247.462ZM248.212 31.75H240.897V33.25H248.212V31.75ZM241.528 32.0947L229.216 12.9237L227.954 13.7343L240.266 32.9053L241.528 32.0947ZM227.835 13.329V32.5H229.335V13.329H227.835ZM228.585 31.75H221.27V33.25H228.585V31.75Z" fill="white"/>
</svg>
